<svg width="13" height="11" viewBox="0 0 13 11" fill="none" xmlns="http://www.w3.org/2000/svg">
<path fill-rule="evenodd" clip-rule="evenodd" d="M0.3 1.05787C-0.1 1.45787 -0.1 2.05787 0.3 2.45787C0.7 2.85787 1.3 2.85787 1.7 2.45787C2.1 2.05787 2.1 1.45787 1.7 1.05787C1.3 0.657874 0.7 0.657874 0.3 1.05787ZM4 1.25787V2.25787H13V1.25787H4ZM0.3 5.05787C-0.1 5.45787 -0.1 6.05787 0.3 6.45787C0.7 6.85787 1.3 6.85787 1.7 6.45787C2.1 6.05787 2.1 5.45787 1.7 5.05787C1.3 4.65787 0.7 4.65787 0.3 5.05787ZM4 6.25787H13V5.25787H4V6.25787ZM0.3 9.05787C-0.1 9.45787 -0.1 10.0579 0.3 10.4579C0.7 10.8579 1.3 10.8579 1.7 10.4579C2.1 10.0579 2.1 9.45787 1.7 9.05787C1.3 8.65787 0.7 8.65787 0.3 9.05787ZM4 10.2579H13V9.25787H4V10.2579Z" fill="#90A4AE"/>
</svg>
